HIERARCHY
ROOT Hips
{
	OFFSET 0.000000 0.000000 0.000000
	CHANNELS 6 Xposition Yposition Zposition Zrotation Yrotation Xrotation 
	JOINT LHipJoint
	{
		OFFSET 0.000000 0.000000 0.000000
		CHANNELS 3 Zrotation Yrotation Xrotation
		JOINT LeftUpLeg
		{
			OFFSET 1.363060 -1.794630 0.839290
			CHANNELS 3 Zrotation Yrotation Xrotation
			JOINT LeftLeg
			{
				OFFSET 2.448110 -6.726130 0.000000
				CHANNELS 3 Zrotation Yrotation Xrotation
				JOINT LeftFoot
				{
					OFFSET 2.562200 -7.039590 0.000000
					CHANNELS 3 Zrotation Yrotation Xrotation
					JOINT LeftToeBase
					{
						OFFSET 0.157640 -0.433110 2.322550
						CHANNELS 3 Zrotation Yrotation Xrotation
						End Site
						{
							OFFSET 0.000000 0.000000 0.000000
						}
					}
				}
			}
		}
	}
	JOINT RHipJoint
	{
		OFFSET 0.000000 0.000000 0.000000
		CHANNELS 3 Zrotation Yrotation Xrotation
		JOINT RightUpLeg
		{
			OFFSET -1.305520 -1.794630 0.839290
			CHANNELS 3 Zrotation Yrotation Xrotation
			JOINT RightLeg
			{
				OFFSET -2.542530 -6.985550 0.000000
				CHANNELS 3 Zrotation Yrotation Xrotation
				JOINT RightFoot
				{
					OFFSET -2.568260 -7.056230 0.000000
					CHANNELS 3 Zrotation Yrotation Xrotation
					JOINT RightToeBase
					{
						OFFSET -0.164730 -0.452590 2.363150
						CHANNELS 3 Zrotation Yrotation Xrotation
						End Site
						{
							OFFSET 0.000000 0.000000 0.000000
						}
					}
				}
			}
		}
	}
}
MOTION
Frames: 33
Frame Time: 0.008333
0.634057 16.758879 -0.336358 -13.206404 82.881296 17.908557 -8.121995 -1.674326 0.349984 -13.779202 -0.612952 -60.311061 -3.363404 0.109676 19.064592 2.334154 9.062686 -8.526701 0.586499 -0.000000 -36.071701 10.765866 -1.283850 -5.602892 9.379911 -11.107854 -24.544462 0.752546 -3.631617 47.171475 -1.127292 -5.349583 4.503683 -1.220100 -0.000000 -55.469099
0.855529 16.692683 -0.348188 -13.581689 82.727900 17.542798 -8.164439 -1.686343 0.263892 -13.663619 -0.564309 -60.818131 -3.270085 0.365532 20.843320 2.285261 8.958962 -8.136148 0.650200 0.000000 -35.698900 10.820704 -1.238148 -5.572573 9.087594 -10.822551 -25.003107 0.583741 -3.763200 49.367634 -1.335945 -6.651494 3.473766 -1.386900 -0.000000 -51.912900
1.073182 16.617592 -0.359495 -13.708208 82.578350 17.408211 -8.205538 -1.704172 0.129350 -13.607099 -0.485813 -61.466327 -3.154856 0.686822 23.161776 2.234076 8.826448 -7.827117 0.689000 -0.000000 -34.890400 10.883497 -1.183457 -5.539189 8.756477 -10.511585 -25.545859 0.413133 -3.908429 51.713976 -1.538430 -7.881564 2.267489 -1.476900 -0.000000 -48.637100
1.286813 16.534543 -0.370375 -13.704296 82.420385 17.382365 -8.244288 -1.732213 -0.054752 -13.610103 -0.349288 -62.246366 -3.018500 1.061122 25.966729 2.181452 8.653222 -7.670673 0.688300 -0.000000 -33.589100 10.952867 -1.122552 -5.501202 8.400122 -10.165898 -26.157431 0.239580 -4.064596 54.172817 -1.722288 -8.968907 0.952088 -1.479800 -0.000000 -45.668100
1.496238 16.444798 -0.380864 -13.636333 82.245666 17.393745 -8.279424 -1.774246 -0.286328 -13.668504 -0.139719 -63.122442 -2.862938 1.470066 29.162806 2.131874 8.450834 -7.730108 0.639400 0.000000 -31.816100 11.027797 -1.057451 -5.459174 8.026583 -9.782139 -26.820746 0.061983 -4.229049 56.703749 -1.875756 -9.852509 -0.401238 -1.399100 0.000000 -43.138500
1.701375 16.349872 -0.390595 -13.471577 82.055943 17.470105 -8.308451 -1.831709 -0.560390 -13.784229 0.137661 -64.036714 -2.692651 1.891708 32.622562 2.092828 8.252682 -8.051316 0.540400 -0.000000 -29.691900 11.109252 -0.989149 -5.415743 7.629453 -9.367832 -27.523673 -0.119416 -4.401235 59.271357 -1.988611 -10.481877 -1.740666 -1.247800 0.000000 -41.090700
1.902259 16.251474 -0.399462 -13.232425 81.853510 17.589652 -8.330800 -1.903336 -0.867666 -13.946982 0.471949 -64.939432 -2.513296 2.307449 36.220034 2.071832 8.094551 -8.665070 0.392900 -0.000000 -27.396800 11.195937 -0.918423 -5.372199 7.215332 -8.923797 -28.260184 -0.304771 -4.579023 61.841240 -2.054911 -10.831696 -3.020964 -1.048099 -0.000000 -39.589100
2.098983 16.151356 -0.407071 -12.870749 81.650511 17.801080 -8.345358 -1.985234 -1.198979 -14.157109 0.839924 -65.775765 -2.332084 2.701559 39.832320 2.075355 8.011385 -9.579662 0.199800 0.000000 -25.145500 11.288237 -0.845515 -5.330844 6.780139 -8.461677 -29.029136 -0.492977 -4.762358 64.384978 -2.072324 -10.893613 -4.220004 -0.822900 -0.000000 -38.601199
2.291788 16.051356 -0.413263 -12.379971 81.458982 18.114788 -8.352681 -2.072233 -1.544120 -14.407889 1.218204 -66.504044 -2.155419 3.063760 43.357180 2.107572 8.026771 -10.784469 -0.038000 0.000001 -23.127801 11.384942 -0.770271 -5.292783 6.328843 -7.990304 -29.833295 -0.683201 -4.949990 66.875838 -2.043516 -10.685316 -5.324123 -0.594800 -0.000000 -38.090300
2.481045 15.953170 -0.417868 -11.746573 81.292993 18.548589 -8.353798 -2.158819 -1.893966 -14.693572 1.582803 -67.089220 -1.988630 3.387602 46.712611 2.170112 8.151861 -12.249615 -0.321800 0.000000 -21.482500 11.484890 -0.692022 -5.259175 5.865793 -7.521904 -30.676434 -0.874306 -5.140905 69.291264 -1.974954 -10.243530 -6.334544 -0.381200 0.000001 -37.962999
2.667064 15.858335 -0.420746 -10.957343 81.166382 19.118700 -8.350002 -2.240394 -2.241158 -15.007855 1.912741 -67.504444 -1.835457 3.669592 49.838495 2.262004 8.385209 -13.928114 -0.654099 -0.000000 -20.288700 11.586938 -0.609491 -5.231728 5.395657 -7.071397 -31.562216 -1.065173 -5.334414 71.613881 -1.876278 -9.622263 -7.263199 -0.193400 0.000000 -38.098800
2.850302 15.768165 -0.422055 -10.038740 81.088300 19.802799 -8.343973 -2.313157 -2.578328 -15.336645 2.193477 -67.734663 -1.697829 3.908662 52.693395 2.379776 8.714364 -15.757255 -1.035600 -0.000000 -19.577100 11.688360 -0.520959 -5.211595 4.931572 -6.649777 -32.492726 -1.254880 -5.528182 73.827129 -1.759391 -8.889530 -8.123503 -0.037400 0.000000 -38.387000
3.031198 15.683752 -0.421980 -9.016775 81.065562 20.578170 -8.338613 -2.374531 -2.899462 -15.665411 2.415465 -67.772476 -1.576356 4.105204 55.252586 2.517523 9.118391 -17.663873 -1.462300 0.000000 -19.337500 11.786338 -0.424482 -5.200264 4.486402 -6.268549 -33.468418 -1.442298 -5.719968 75.918634 -1.636622 -8.117584 -8.933465 0.086400 -0.000000 -38.719000
3.210135 15.605773 -0.420731 -7.915188 81.102740 21.424118 -8.336677 -2.423234 -3.199887 -15.979795 2.573088 -67.619943 -1.470432 4.260999 57.507442 2.667443 9.571039 -19.571428 -1.924400 -0.000000 -19.523100 11.877955 -0.318014 -5.199606 4.073440 -5.938130 -34.488742 -1.626099 -5.907663 77.879533 -1.519386 -7.375441 -9.711612 0.182099 -0.000000 -39.008001
3.387560 15.534832 -0.418700 -6.782743 81.200135 22.295816 -8.341873 -2.458550 -3.474889 -16.262777 2.667811 -67.289294 -1.378711 4.379416 59.461905 2.820325 10.042042 -21.407546 -2.405400 -0.000000 -20.053500 11.958932 -0.200090 -5.210088 3.710531 -5.663565 -35.552512 -1.804451 -6.087916 79.700529 -1.417316 -6.723093 -10.472460 0.256200 -0.000000 -39.198200
3.563834 15.471216 -0.416222 -5.657615 81.356522 23.159226 -8.357122 -2.480719 -3.721324 -16.501899 2.703885 -66.800250 -1.299479 4.464874 61.131898 2.966884 10.501193 -23.112802 -2.885100 0.000000 -20.817900 12.025362 -0.069870 -5.231844 3.412746 -5.448168 -36.659065 -1.974982 -6.258039 81.374861 -1.337223 -6.203728 -11.228898 0.317100 -0.000000 -39.251201
3.739291 15.415057 -0.413613 -4.581556 81.568833 23.977401 -8.385007 -2.490470 -3.936894 -16.687631 2.689690 -66.179247 -1.230983 4.522775 62.542106 3.098899 10.921047 -24.645399 -3.342100 -0.000000 -21.691100 12.073190 0.072440 -5.263628 3.194478 -5.291337 -37.808389 -2.134646 -6.415325 82.895518 -1.282857 -5.840572 -11.990008 0.373600 0.000000 -39.143700
3.914194 15.366381 -0.411079 -3.593893 81.832720 24.715891 -8.427302 -2.488953 -4.120752 -16.814820 2.637108 -65.456022 -1.171862 4.558968 63.721940 3.210052 11.278663 -25.983230 -3.757600 0.000000 -22.555100 12.098767 0.225681 -5.303101 3.067632 -5.189194 -39.001714 -2.279958 -6.557550 84.255677 -1.254965 -5.636217 -12.760250 0.433100 0.000000 -38.861200
4.088708 15.325207 -0.408796 -2.734264 82.142782 25.340330 -8.484895 -2.477534 -4.273306 -16.882389 2.560584 -64.661756 -1.121285 4.579324 64.702411 3.296742 11.558365 -27.123799 -4.118100 0.000000 -23.318800 12.099026 0.387674 -5.346731 3.041175 -5.134417 -40.240610 -2.407075 -6.682939 85.447668 -1.251459 -5.573542 -13.539140 0.500900 -0.000000 -38.396200
4.263000 15.291519 -0.406751 -2.037571 82.492622 25.820401 -8.557615 -2.457551 -4.396709 -16.893518 2.477029 -63.824715 -1.079121 4.589191 65.512362 3.358199 11.752776 -28.080775 -4.417000 0.000000 -23.930000 12.071925 0.555607 -5.390311 3.119793 -5.117119 -41.526359 -2.512237 -6.790412 86.463574 -1.267907 -5.619721 -14.320309 0.579200 -0.000000 -37.751901
4.437120 15.265277 -0.404838 -1.536004 82.875015 26.127670 -8.644401 -2.430172 -4.494273 -16.853795 2.403975 -62.968244 -1.045897 4.592990 66.176019 3.396083 11.862028 -28.879967 -4.654700 -0.000000 -24.376600 12.016500 0.726249 -5.429176 3.303906 -5.125250 -42.859024 -2.592000 -6.879458 87.295181 -1.298153 -5.731667 -15.092377 0.666700 0.000000 -36.947101
4.611132 15.246565 -0.402858 -1.257197 83.282012 26.237238 -8.743286 -2.396232 -4.570490 -16.771137 2.358415 -62.109336 -1.022699 4.594004 66.711007 3.413939 11.893211 -29.553307 -4.837300 -0.000000 -24.680101 11.933026 0.896444 -5.458921 3.588665 -5.145959 -44.236085 -2.643592 -6.950150 87.934548 -1.335021 -5.861917 -15.838777 0.758600 0.000000 -36.022600
4.785035 15.235401 -0.400511 -1.219638 83.704921 26.130722 -8.851692 -2.356073 -4.630538 -16.654141 2.355679 -61.255383 -1.010953 4.594055 67.127332 3.416207 11.857908 -30.132949 -4.974000 0.000000 -24.888000 11.823123 1.063278 -5.475595 3.964145 -5.166333 -45.651112 -2.665200 -7.003014 88.374736 -1.371295 -5.965726 -16.539529 0.847401 -0.000000 -35.043200
4.958924 15.231897 -0.397431 -1.440843 84.134497 25.790999 -8.966685 -2.309627 -4.679468 -16.510912 2.407333 -60.408181 -1.012140 4.593911 67.428483 3.407415 11.769629 -30.646506 -5.074800 0.000000 -25.062700 11.689212 1.224609 -5.476213 4.417113 -5.174715 -47.095167 -2.655931 -7.038709 88.609737 -1.400655 -6.006876 -17.172861 0.924600 0.000001 -34.101200
5.132805 15.236126 -0.393237 -1.915864 84.562452 25.218806 -9.084902 -2.256606 -4.722341 -16.349621 2.520843 -59.559287 -1.027433 4.592670 67.611383 3.391405 11.642381 -31.111829 -5.148400 -0.000000 -25.274300 11.535216 1.378540 -5.459030 4.929393 -5.162765 -48.553627 -2.615917 -7.058540 88.635844 -1.418413 -5.961457 -17.720454 0.982400 -0.000000 -33.285800
5.306790 15.248155 -0.387588 -2.643120 84.980099 24.412788 -9.203313 -2.196572 -4.763079 -16.175553 2.698533 -58.698317 -1.057471 4.588926 67.669204 3.370660 11.487499 -31.534914 -5.200201 0.000000 -25.591600 11.365054 1.524279 -5.423582 5.482454 -5.124361 -50.010386 -2.546044 -7.063474 88.450864 -1.422284 -5.821286 -18.167860 1.015500 -0.000000 -32.692600
5.481071 15.267997 -0.380150 -3.597662 85.380890 23.393191 -9.318979 -2.129279 -4.804694 -15.992722 2.938088 -57.810447 -1.102138 4.580310 67.593067 3.346116 11.313075 -31.909853 -5.231700 -0.000000 -26.073900 11.183315 1.661197 -5.370597 6.056675 -5.057857 -51.447095 -2.447756 -7.054921 88.055238 -1.412461 -5.592754 -18.510247 1.022999 -0.000000 -32.391201
5.655792 15.295648 -0.370681 -4.741250 85.759518 22.193881 -9.429474 -2.054809 -4.848903 -15.803146 3.232533 -56.881349 -1.160372 4.564189 67.374702 3.317181 11.123620 -32.219815 -5.241100 -0.000000 -26.763400 10.994399 1.788952 -5.301689 6.633504 -4.964542 -52.844470 -2.322742 -7.034167 87.450879 -1.391615 -5.295754 -18.752144 1.007600 -0.000000 -32.417900
5.831245 15.330963 -0.358977 -6.013664 86.112636 20.872123 -9.532939 -1.973827 -4.896243 -15.607207 3.571141 -55.899257 -1.230223 4.537918 67.008362 3.282027 10.920132 -32.440688 -5.223600 0.000001 -27.678700 10.802210 1.907258 -5.219104 7.197104 -4.848568 -54.185515 -2.172776 -7.002554 86.641382 -1.364353 -4.959578 -18.907105 0.976100 -0.000000 -32.774900
6.007656 15.373758 -0.344970 -7.342375 86.438259 19.498661 -9.628393 -1.887560 -4.946016 -15.403932 3.940722 -54.857636 -1.308848 4.499352 66.493098 3.238059 10.701176 -32.544703 -5.173000 0.000000 -28.815199 10.609595 2.015685 -5.124874 7.735415 -4.714563 -55.456010 -1.999563 -6.961003 85.630538 -1.336582 -4.619135 -18.994265 0.936800 -0.000001 -33.438400
6.185249 15.423732 -0.328629 -8.619282 86.736296 18.181502 -9.715539 -1.797771 -4.996815 -15.192664 4.326295 -53.754319 -1.392794 4.446797 65.833516 3.182641 10.464300 -32.506026 -5.083600 0.000000 -30.131900 10.418626 2.113288 -5.020813 8.239182 -4.568243 -56.644547 -1.804713 -6.910377 84.422714 -1.314675 -4.309854 -19.036847 0.898600 0.000000 -34.339300
6.364306 15.480444 -0.309990 -9.724760 87.007245 17.043139 -9.794950 -1.706463 -5.046631 -14.972565 4.713557 -52.595230 -1.478189 4.379736 65.040555 3.113553 10.207333 -32.302541 -4.950900 0.000000 -31.576800 10.229984 2.198966 -4.907742 8.703834 -4.413289 -57.744391 -1.589734 -6.850752 83.020511 -1.304687 -4.063802 -19.054834 0.868900 -0.000000 -35.396900
6.545094 15.543406 -0.289212 -10.545981 87.250986 16.200690 -9.867899 -1.615413 -5.093082 -14.742747 5.090470 -51.392094 -1.561109 4.298792 64.129786 3.029296 9.929202 -31.917495 -4.772800 0.000000 -33.107900 10.043311 2.271526 -4.785246 9.129132 -4.250440 -58.752270 -1.356294 -6.781315 81.425065 -1.311720 -3.906617 -19.061029 0.852900 -0.000000 -36.523101
